<svg version="1.2" xmlns="http://www.w3.org/2000/svg" viewBox="0 0 1080 1080" width="1080" height="1080">
	<title>New Project</title>
	<style>
		.s0 { fill: #ffffff;stroke: #bea620;stroke-miterlimit:10;stroke-width: 25 } 
		.s1 { fill: #ffffff;stroke: #ddcf7f;stroke-miterlimit:10;stroke-width: 15 } 
		.s2 { fill: #eeca00 } 
		.s3 { fill: #fff9da } 
		.s4 { fill: #f8d513 } 
	</style>
	<g id="Layer 1">
		<path id="Shape 1 copy" fill-rule="evenodd" class="s0" d="m540 866.4c-180.8 0-326.9-146.1-326.9-326.9 0-180.8 146.1-326.9 326.9-326.9 180.8 0 326.9 146.1 326.9 326.9 0 180.8-146.1 326.9-326.9 326.9z"/>
		<path id="Shape 1 copy 2" fill-rule="evenodd" class="s1" d="m540 771.5c-128.3 0-232-103.7-232-232 0-128.3 103.7-232 232-232 128.3 0 232 103.7 232 232 0 128.3-103.7 232-232 232z"/>
		<path id="Shape 1 copy 3" fill-rule="evenodd" class="s2" d="m540 610.3c-39.1 0-70.8-31.7-70.8-70.8 0-39.1 31.7-70.8 70.8-70.8 39.1 0 70.8 31.7 70.8 70.8 0 39.1-31.7 70.8-70.8 70.8z"/>
		<path id="Shape 1 copy 4" fill-rule="evenodd" class="s3" d="m540 570.7c-16.7 0-30.2-13.5-30.2-30.2 0-16.7 13.5-30.2 30.2-30.2 16.7 0 30.2 13.5 30.2 30.2 0 16.7-13.5 30.2-30.2 30.2z"/>
	</g>
	<path id="Shape 3 copy" fill-rule="evenodd" class="s4" d="m859 237c-8.3 0-15-6.7-15-15 0-8.3 6.7-15 15-15 8.3 0 15 6.7 15 15 0 8.3-6.7 15-15 15z"/>
	<path id="Shape 3 copy 3" fill-rule="evenodd" class="s4" d="m550.8 1000.7c-5.9 5.8-15.4 5.8-21.3 0-5.8-5.9-5.8-15.4 0-21.2 5.9-5.9 15.4-5.9 21.3 0 5.8 5.8 5.8 15.3 0 21.2z"/>
	<path id="Shape 3 copy 4" fill-rule="evenodd" class="s4" d="m551.5 100.5c-5.9 5.9-15.4 5.9-21.3 0-5.8-5.8-5.8-15.3 0-21.2 5.9-5.8 15.4-5.8 21.3 0 5.8 5.9 5.8 15.4 0 21.2z"/>
	<path id="Shape 3 copy 5" fill-rule="evenodd" class="s4" d="m873.5 858.5c0 8.3-6.7 15-15 15-8.3 0-15-6.7-15-15 0-8.3 6.7-15 15-15 8.3 0 15 6.7 15 15z"/>
	<path id="Shape 3 copy 6" fill-rule="evenodd" class="s4" d="m237.5 221.5c0 8.3-6.7 15-15 15-8.3 0-15-6.7-15-15 0-8.3 6.7-15 15-15 8.3 0 15 6.7 15 15z"/>
	<path id="Shape 3 copy 7" fill-rule="evenodd" class="s4" d="m779.7 933.8c-2.1 8-10.3 12.8-18.4 10.6-8-2.1-12.7-10.3-10.6-18.3 2.2-8 10.4-12.8 18.4-10.6 8 2.1 12.8 10.3 10.6 18.3z"/>
	<path id="Shape 3 copy 8" fill-rule="evenodd" class="s4" d="m330.3 153.9c-2.2 8-10.4 12.8-18.4 10.6-8-2.1-12.8-10.3-10.6-18.3 2.1-8 10.3-12.8 18.4-10.6 8 2.1 12.7 10.3 10.6 18.3z"/>
	<path id="Shape 3 copy 9" fill-rule="evenodd" class="s4" d="m944.6 761.5c2.1 8-2.6 16.2-10.6 18.3-8 2.2-16.2-2.6-18.4-10.6-2.1-8 2.6-16.2 10.6-18.3 8-2.2 16.2 2.5 18.4 10.6z"/>
	<path id="Shape 3 copy 10" fill-rule="evenodd" class="s4" d="m165.4 310.8c2.1 8-2.6 16.2-10.6 18.3-8 2.2-16.2-2.5-18.4-10.6-2.1-8 2.6-16.2 10.6-18.3 8-2.2 16.2 2.6 18.4 10.6z"/>
	<path id="Shape 3 copy 11" fill-rule="evenodd" class="s4" d="m988.1 649.3c4.2 7.2 1.7 16.4-5.5 20.5-7.1 4.2-16.3 1.7-20.4-5.5-4.2-7.2-1.7-16.3 5.4-20.5 7.2-4.1 16.4-1.7 20.5 5.5z"/>
	<path id="Shape 3 copy 12" fill-rule="evenodd" class="s4" d="m118.8 415.7c4.2 7.2 1.7 16.3-5.4 20.5-7.2 4.1-16.4 1.7-20.5-5.5-4.2-7.2-1.7-16.4 5.5-20.5 7.1-4.2 16.3-1.7 20.4 5.5z"/>
	<path id="Shape 3 copy 13" fill-rule="evenodd" class="s4" d="m669.6 982.3c-4.1 7.2-13.3 9.7-20.5 5.5-7.1-4.1-9.6-13.3-5.4-20.5 4.1-7.2 13.3-9.6 20.4-5.5 7.2 4.2 9.7 13.3 5.5 20.5z"/>
	<path id="Shape 3 copy 14" fill-rule="evenodd" class="s4" d="m437.3 112.7c-4.1 7.2-13.3 9.6-20.4 5.5-7.2-4.2-9.7-13.3-5.5-20.5 4.1-7.2 13.3-9.7 20.5-5.5 7.1 4.1 9.6 13.3 5.4 20.5z"/>
	<path id="Shape 3 copy 15" fill-rule="evenodd" class="s4" d="m1001.2 529.7c5.8 5.9 5.8 15.4 0 21.3-5.9 5.8-15.4 5.8-21.2 0-5.9-5.9-5.9-15.4 0-21.3 5.8-5.8 15.3-5.8 21.2 0z"/>
	<path id="Shape 3 copy 16" fill-rule="evenodd" class="s4" d="m101 529c5.9 5.9 5.9 15.4 0 21.3-5.8 5.8-15.3 5.8-21.2 0-5.8-5.9-5.8-15.4 0-21.3 5.9-5.8 15.4-5.8 21.2 0z"/>
	<path id="Shape 3 copy 17" fill-rule="evenodd" class="s4" d="m982.8 410.9c7.2 4.1 9.7 13.3 5.5 20.5-4.1 7.1-13.3 9.6-20.5 5.4-7.2-4.1-9.6-13.3-5.5-20.4 4.2-7.2 13.3-9.7 20.5-5.5z"/>
	<path id="Shape 3 copy 18" fill-rule="evenodd" class="s4" d="m113.2 643.2c7.2 4.1 9.6 13.3 5.5 20.4-4.2 7.2-13.3 9.7-20.5 5.5-7.2-4.1-9.7-13.3-5.5-20.5 4.1-7.1 13.3-9.6 20.5-5.4z"/>
	<path id="Shape 3 copy 19" fill-rule="evenodd" class="s4" d="m934.3 300.8c8 2.1 12.8 10.3 10.6 18.4-2.1 8-10.3 12.7-18.3 10.6-8-2.2-12.8-10.4-10.6-18.4 2.1-8 10.3-12.8 18.3-10.6z"/>
	<path id="Shape 3 copy 20" fill-rule="evenodd" class="s4" d="m154.4 750.2c8 2.2 12.8 10.4 10.6 18.4-2.1 8-10.3 12.8-18.3 10.6-8-2.1-12.8-10.3-10.6-18.4 2.1-8 10.3-12.7 18.3-10.6z"/>
	<path id="Shape 3 copy 21" fill-rule="evenodd" class="s4" d="m762 135.9c8-2.1 16.2 2.6 18.3 10.6 2.2 8-2.6 16.2-10.6 18.4-8 2.1-16.2-2.6-18.3-10.6-2.2-8 2.5-16.2 10.6-18.4z"/>
	<path id="Shape 3 copy 22" fill-rule="evenodd" class="s4" d="m311.3 915.1c8-2.1 16.2 2.6 18.3 10.6 2.2 8-2.5 16.2-10.6 18.4-8 2.1-16.2-2.6-18.3-10.6-2.2-8 2.6-16.2 10.6-18.4z"/>
	<path id="Shape 3 copy 23" fill-rule="evenodd" class="s4" d="m649.8 92.4c7.2-4.2 16.4-1.7 20.5 5.5 4.2 7.1 1.7 16.3-5.5 20.4-7.2 4.2-16.3 1.7-20.5-5.4-4.1-7.2-1.7-16.4 5.5-20.5z"/>
	<path id="Shape 3 copy 24" fill-rule="evenodd" class="s4" d="m416.2 961.7c7.2-4.2 16.3-1.7 20.5 5.4 4.1 7.2 1.7 16.4-5.5 20.5-7.2 4.2-16.4 1.7-20.5-5.5-4.2-7.1-1.7-16.3 5.5-20.4z"/>
	<path id="Shape 3 copy 48" fill-rule="evenodd" class="s4" d="m222 843c8.3 0 15 6.7 15 15 0 8.3-6.7 15-15 15-8.3 0-15-6.7-15-15 0-8.3 6.7-15 15-15z"/>
</svg>